<svg id="Layer_1" data-name="Layer 1" xmlns="http://www.w3.org/2000/svg" viewBox="0 0 158 37.03"><defs><style>.cls-1{fill:#fff;}.cls-2{fill:#d76027;}</style></defs><title>COS_Data Science Research Group_RGB_hor_w1</title><rect class="cls-1" x="76.42" y="6.03" width="0.38" height="24.97"/><path class="cls-2" d="M39.57,8.7c.43-1.12,1.85-1.12,3-1.12h.21V6s-4.44.1-5.8.1S31.42,6,31.42,6V7.58h.21c1.14,0,2.56,0,3,1.12A21.15,21.15,0,0,1,35,13.55v9.91a21.15,21.15,0,0,1-.36,4.85c-.43,1.13-1.85,1.13-3,1.13h-.21V31S35,30.84,37,30.84c2.26,0,5.79.15,5.79.15V29.44h-.21c-1.14,0-2.56,0-3-1.13a21.74,21.74,0,0,1-.35-4.85V13.55A21.74,21.74,0,0,1,39.57,8.7Z"/><path class="cls-2" d="M46.14,6.05v6.47h1.54v-.2c.14-4.21,1.75-4.39,5.39-4.39h.37c.9,0,1.75,0,2.09.32a.62.62,0,0,1,.16.47v17c0,2.53-.35,3.57-3.91,3.72h-.2V31s4.15-.15,6.55-.15c1.83,0,5.92.15,5.92.15V29.47h-.21c-3.55-.15-3.91-1.19-3.91-3.72v-17a.56.56,0,0,1,.17-.42c.41-.41,1.54-.39,2.44-.38h.51c3.55,0,4.69,1,4.9,4.4v.19H69.5V6.05s-9,.06-11.68.06S46.14,6.05,46.14,6.05Z"/><path class="cls-2" d="M28,29.44a4.43,4.43,0,0,1-3.5-1.85L17.1,19.13c3.88-.51,6.27-3.07,6.27-6.78A5.45,5.45,0,0,0,20.6,7.18,12.2,12.2,0,0,0,14.67,6c-.78,0-2.65.08-4.71.08S3.38,6,3.38,6V7.57h.31c1.18,0,2.5,0,2.85,1.12a22.5,22.5,0,0,1,.32,4.59V23.46a38.67,38.67,0,0,1-.14,4,5.78,5.78,0,0,1-.18.86c-.36,1.12-1.79,1.12-2.95,1.12H3.38V31s3.46-.16,5.77-.16c2,0,5.44.15,5.44.16V29.44h-.31c-1.16,0-2.47,0-2.85-1.12a4.74,4.74,0,0,1-.18-.86,35.71,35.71,0,0,1-.15-3.73V19.57c1.38,0,1.5.16,2.21,1,.13.16.28.34.46.54l6.15,7.63L21.73,31s2-.09,2.95-.09c1.4,0,3.47.09,3.47.09V29.47ZM11.1,17.87V8.81c0-.36,0-.86.29-1a18.09,18.09,0,0,1,2.32,0c3.16,0,5,1.85,5,5.07,0,2.35-.63,3.7-2,4.38S11.1,17.87,11.1,17.87Z"/><path class="cls-1" d="M83.67,8.68a2.55,2.55,0,0,1,2.55-2.8,2,2,0,0,1,2.15,1.71h-.66A1.4,1.4,0,0,0,86.2,6.47c-1.18,0-1.84,1-1.84,2.21s.73,2.2,1.85,2.2A1.49,1.49,0,0,0,87.77,9.4h.67a2.24,2.24,0,0,1-.65,1.51,2.19,2.19,0,0,1-1.6.56A2.53,2.53,0,0,1,83.67,8.68Z"/><path class="cls-1" d="M88.89,9.43a1.88,1.88,0,1,1,3.74,0,1.88,1.88,0,1,1-3.74,0Zm3.12,0c0-.85-.42-1.54-1.25-1.54s-1.25.69-1.25,1.54S89.94,11,90.76,11,92,10.29,92,9.43Z"/><path class="cls-1" d="M93.26,6h.61v5.37h-.61Z"/><path class="cls-1" d="M94.74,6h.6v5.37h-.6Z"/><path class="cls-1" d="M96,9.43a1.9,1.9,0,0,1,1.84-2c1.17,0,1.79.9,1.79,2.19h-3A1.28,1.28,0,0,0,97.85,11a1,1,0,0,0,1.07-.79h.6a1.58,1.58,0,0,1-1.67,1.3A1.87,1.87,0,0,1,96,9.43Zm.64-.31H99c0-.78-.44-1.25-1.14-1.25S96.7,8.41,96.61,9.12Z"/><path class="cls-1" d="M100.09,11.59h.56c.06.43.47.59,1.07.59s1.11-.32,1.11-1v-.55h0a1.33,1.33,0,0,1-1.15.6A1.74,1.74,0,0,1,100,9.31a1.72,1.72,0,0,1,1.66-1.91,1.38,1.38,0,0,1,1.19.58h0V7.49h.61v3.67c0,1-.68,1.5-1.71,1.5S100.16,12.26,100.09,11.59Zm2.79-2.31c0-.85-.36-1.37-1.19-1.37s-1.1.57-1.1,1.41.39,1.4,1.11,1.4C102.59,10.72,102.88,10.1,102.88,9.28Z"/><path class="cls-1" d="M104,9.43a1.9,1.9,0,0,1,1.84-2c1.17,0,1.79.9,1.79,2.19h-3A1.28,1.28,0,0,0,105.92,11a1,1,0,0,0,1.07-.79h.6a1.58,1.58,0,0,1-1.67,1.3A1.87,1.87,0,0,1,104,9.43Zm.64-.31H107c0-.78-.44-1.25-1.14-1.25S104.77,8.41,104.68,9.12Z"/><path class="cls-1" d="M109.23,9.43a1.88,1.88,0,1,1,3.75,0,1.88,1.88,0,1,1-3.75,0Zm3.13,0c0-.85-.42-1.54-1.25-1.54s-1.25.69-1.25,1.54.42,1.53,1.25,1.53S112.36,10.29,112.36,9.43Z"/><path class="cls-1" d="M113.26,7.49h.53V6.87c0-.67.39-.91,1-.91h.31v.52h-.2c-.39,0-.53.1-.53.42v.59h.72V8h-.72v3.39h-.61V8h-.53Z"/><path class="cls-1" d="M116.66,9.55h.66A1.44,1.44,0,0,0,119,10.93c.74,0,1.27-.33,1.27-1s-.64-.91-1.6-1.12-1.76-.48-1.76-1.49.74-1.42,1.82-1.42a1.79,1.79,0,0,1,2,1.67h-.64a1.24,1.24,0,0,0-1.38-1.15c-.73,0-1.21.31-1.21.87s.6.78,1.4.94c1,.21,2,.47,2,1.68,0,1-.82,1.56-2,1.56A2,2,0,0,1,116.66,9.55Z"/><path class="cls-1" d="M121.38,9.43a1.89,1.89,0,0,1,1.88-2,1.56,1.56,0,0,1,1.66,1.35h-.62a1,1,0,0,0-1-.85c-.83,0-1.25.69-1.25,1.54s.42,1.53,1.25,1.53a1,1,0,0,0,1.06-1h.6a1.52,1.52,0,0,1-1.66,1.47A1.89,1.89,0,0,1,121.38,9.43Z"/><path class="cls-1" d="M125.49,6h.61v.75h-.61Zm0,1.49h.61v3.88h-.61Z"/><path class="cls-1" d="M126.71,9.43a1.89,1.89,0,0,1,1.84-2c1.16,0,1.78.9,1.78,2.19h-3c0,.78.47,1.38,1.25,1.38a1,1,0,0,0,1.08-.79h.59a1.58,1.58,0,0,1-1.67,1.3A1.87,1.87,0,0,1,126.71,9.43Zm.64-.31h2.33c0-.78-.43-1.25-1.13-1.25S127.44,8.41,127.35,9.12Z"/><path class="cls-1" d="M131.53,8h0a1.43,1.43,0,0,1,1.23-.6,1.16,1.16,0,0,1,1.3,1.24v2.73h-.6V8.7c0-.51-.33-.79-.88-.79A1,1,0,0,0,131.53,9v2.39h-.61V7.49h.61Z"/><path class="cls-1" d="M134.67,9.43a1.89,1.89,0,0,1,1.87-2,1.56,1.56,0,0,1,1.66,1.35h-.61a1,1,0,0,0-1.05-.85c-.82,0-1.25.69-1.25,1.54s.43,1.53,1.25,1.53a1,1,0,0,0,1.06-1h.6a1.52,1.52,0,0,1-1.66,1.47A1.89,1.89,0,0,1,134.67,9.43Z"/><path class="cls-1" d="M138.56,9.43a1.89,1.89,0,0,1,1.84-2c1.16,0,1.78.9,1.78,2.19h-3c0,.78.47,1.38,1.25,1.38a1,1,0,0,0,1.08-.79h.59a1.58,1.58,0,0,1-1.67,1.3A1.87,1.87,0,0,1,138.56,9.43Zm.64-.31h2.33c0-.78-.44-1.25-1.13-1.25S139.29,8.41,139.2,9.12Z"/><path class="cls-1" d="M83.88,13.85h2.79c1.91,0,3.14,1.54,3.14,3.65a3.59,3.59,0,0,1-1.14,2.81,3.19,3.19,0,0,1-2.12.69H83.88Zm2.57,5.9c1.36,0,1.89-.83,1.89-2.25s-.62-2.41-1.85-2.41H85.33v4.66Z"/><path class="cls-1" d="M93.51,20.43h0a1.57,1.57,0,0,1-1.51.69c-1,0-1.79-.55-1.79-1.57s.92-1.49,2.06-1.65c.85-.12,1.24-.19,1.24-.58s-.29-.61-.86-.61-.95.23-1,.72H90.43c0-.9.71-1.69,2.21-1.69s2.16.69,2.16,1.89v2.61c0,.39.06.62.18.71V21H93.67A1.39,1.39,0,0,1,93.51,20.43Zm0-1.24v-.77a3.79,3.79,0,0,1-1,.3c-.71.16-1.06.32-1.06.8s.32.65.8.65C93.09,20.17,93.52,19.69,93.52,19.19Z"/><path class="cls-1" d="M95.26,15.87H96v-1.6H97.3v1.6h.88v.9H97.3v2.72a.45.45,0,0,0,.51.51h.4v1s-.31,0-.85,0S96,20.75,96,19.78v-3h-.71Z"/><path class="cls-1" d="M102,20.43h0a1.57,1.57,0,0,1-1.51.69c-1,0-1.79-.55-1.79-1.57s.92-1.49,2.06-1.65c.85-.12,1.24-.19,1.24-.58s-.29-.61-.86-.61-1,.23-1,.72H98.92c0-.9.71-1.69,2.21-1.69s2.16.69,2.16,1.89v2.61c0,.39.06.62.18.71V21h-1.31A1.39,1.39,0,0,1,102,20.43Zm0-1.24v-.77a3.79,3.79,0,0,1-1,.3c-.71.16-1.06.32-1.06.8s.32.65.8.65C101.58,20.17,102,19.69,102,19.19Z"/><path class="cls-1" d="M105.62,18.79H107c.1.86.59,1.2,1.61,1.2.74,0,1.39-.26,1.39-.92s-.68-.84-1.77-1.09c-1.28-.29-2.45-.63-2.45-2.12s1.15-2.13,2.74-2.13,2.65.78,2.75,2.22h-1.38a1.23,1.23,0,0,0-1.38-1.08c-.78,0-1.29.33-1.29.84s.5.75,1.56,1c1.47.32,2.66.67,2.66,2.21s-1.16,2.26-2.77,2.26C106.77,21.16,105.67,20.3,105.62,18.79Z"/><path class="cls-1" d="M112,18.44a2.53,2.53,0,0,1,2.56-2.71,2.18,2.18,0,0,1,2.33,1.88h-1.33a.94.94,0,0,0-.94-.79c-.82,0-1.24.63-1.24,1.62s.39,1.62,1.22,1.62a1,1,0,0,0,1-.87h1.31a2.15,2.15,0,0,1-2.31,2A2.55,2.55,0,0,1,112,18.44Z"/><path class="cls-1" d="M117.53,13.85h1.36v1.22h-1.36Zm0,2h1.36V21h-1.36Z"/><path class="cls-1" d="M119.52,18.43a2.54,2.54,0,0,1,2.53-2.7c1.65,0,2.53,1.26,2.53,3.09h-3.72a1.28,1.28,0,0,0,1.31,1.28,1,1,0,0,0,1-.63h1.34a2.2,2.2,0,0,1-2.32,1.68A2.54,2.54,0,0,1,119.52,18.43Zm1.36-.55h2.28a1.08,1.08,0,0,0-1.09-1.1A1.14,1.14,0,0,0,120.88,17.88Z"/><path class="cls-1" d="M126.54,16.57h0a1.67,1.67,0,0,1,1.52-.84,1.77,1.77,0,0,1,1.77,1.92V21H128.5V17.85a.85.85,0,0,0-.89-.94,1.07,1.07,0,0,0-1,1.18V21h-1.36V15.87h1.33Z"/><path class="cls-1" d="M130.45,18.44A2.53,2.53,0,0,1,133,15.73a2.18,2.18,0,0,1,2.33,1.88H134a.94.94,0,0,0-.94-.79c-.82,0-1.24.63-1.24,1.62s.39,1.62,1.22,1.62a1,1,0,0,0,1-.87h1.31a2.15,2.15,0,0,1-2.31,2A2.55,2.55,0,0,1,130.45,18.44Z"/><path class="cls-1" d="M135.73,18.43a2.54,2.54,0,0,1,2.53-2.7c1.65,0,2.53,1.26,2.53,3.09h-3.72a1.28,1.28,0,0,0,1.31,1.28,1,1,0,0,0,1-.63h1.34a2.2,2.2,0,0,1-2.32,1.68A2.54,2.54,0,0,1,135.73,18.43Zm1.36-.55h2.28a1.08,1.08,0,0,0-1.09-1.1A1.14,1.14,0,0,0,137.09,17.88Z"/><path class="cls-1" d="M86.56,28.24H85.38V31h-1.5V23.85H87a2.51,2.51,0,0,1,1.87.67,2.13,2.13,0,0,1,.64,1.55,2,2,0,0,1-1.42,2L89.9,31H88.22Zm-1.18-1.18h1.5c.76,0,1.16-.35,1.16-1s-.42-1-1.14-1H85.38Z"/><path class="cls-1" d="M89.87,28.43a2.54,2.54,0,0,1,2.53-2.7c1.65,0,2.53,1.26,2.53,3.09H91.21a1.28,1.28,0,0,0,1.31,1.28,1,1,0,0,0,1-.63h1.34a2.2,2.2,0,0,1-2.32,1.68A2.54,2.54,0,0,1,89.87,28.43Zm1.36-.55h2.28a1.08,1.08,0,0,0-1.09-1.1A1.14,1.14,0,0,0,91.23,27.88Z"/><path class="cls-1" d="M95.24,29.34H96.5a1,1,0,0,0,1.12.85c.6,0,.94-.23.94-.59s-.65-.54-1.35-.68c-.92-.18-1.82-.43-1.82-1.55s.92-1.64,2.09-1.64c1.35,0,2.1.67,2.2,1.7H98.45c-.06-.55-.41-.75-1-.75s-.88.2-.88.57.68.48,1.41.63,1.81.42,1.81,1.62c0,1-.88,1.65-2.16,1.65C96.15,31.15,95.32,30.43,95.24,29.34Z"/><path class="cls-1" d="M100.21,28.43a2.54,2.54,0,0,1,2.53-2.7c1.65,0,2.53,1.26,2.53,3.09h-3.72a1.28,1.28,0,0,0,1.31,1.28,1,1,0,0,0,1-.63h1.34a2.2,2.2,0,0,1-2.32,1.68A2.54,2.54,0,0,1,100.21,28.43Zm1.36-.55h2.28a1.08,1.08,0,0,0-1.09-1.1A1.14,1.14,0,0,0,101.57,27.88Z"/><path class="cls-1" d="M109,30.43h0a1.57,1.57,0,0,1-1.51.69c-1,0-1.79-.55-1.79-1.57s.92-1.49,2.06-1.65c.85-.12,1.24-.19,1.24-.58s-.29-.61-.86-.61-1,.23-1,.72h-1.21c0-.9.71-1.69,2.21-1.69s2.16.69,2.16,1.89v2.61c0,.39.06.62.18.71V31h-1.31A1.39,1.39,0,0,1,109,30.43Zm0-1.24v-.77a3.79,3.79,0,0,1-1,.3c-.71.16-1.06.32-1.06.8s.32.65.8.65C108.55,30.17,109,29.69,109,29.19Z"/><path class="cls-1" d="M112.43,26.69h0a1.35,1.35,0,0,1,1.26-.88.89.89,0,0,1,.32,0V27h0a1.29,1.29,0,0,0-1.53,1.46V31h-1.36V25.87h1.31Z"/><path class="cls-1" d="M114.23,28.44a2.53,2.53,0,0,1,2.56-2.71,2.18,2.18,0,0,1,2.33,1.88h-1.33a.94.94,0,0,0-.94-.79c-.82,0-1.24.63-1.24,1.62s.39,1.62,1.22,1.62a1,1,0,0,0,1-.87h1.31a2.15,2.15,0,0,1-2.31,2A2.55,2.55,0,0,1,114.23,28.44Z"/><path class="cls-1" d="M121.12,26.54h0a1.64,1.64,0,0,1,1.49-.81,1.77,1.77,0,0,1,1.77,1.92V31h-1.36V27.85a.85.85,0,0,0-.89-.94,1.07,1.07,0,0,0-1,1.18V31h-1.36V23.85h1.36Z"/><path class="cls-1" d="M132.23,30h0a2.14,2.14,0,0,1-2,1.11,3.26,3.26,0,0,1-2.51-1,4.25,4.25,0,0,1,.24-5.58,3.28,3.28,0,0,1,2.3-.82,2.8,2.8,0,0,1,3.05,2.39h-1.41a1.51,1.51,0,0,0-1.61-1.19c-1.35,0-2,1.12-2,2.54s.77,2.53,2,2.53a1.75,1.75,0,0,0,1.84-1.62v0h-1.72V27.2h3V31h-1.09Z"/><path class="cls-1" d="M135.58,26.69h0a1.35,1.35,0,0,1,1.26-.88.89.89,0,0,1,.32,0V27h0a1.29,1.29,0,0,0-1.53,1.46V31h-1.36V25.87h1.31Z"/><path class="cls-1" d="M137.38,28.44a2.68,2.68,0,1,1,2.68,2.71A2.61,2.61,0,0,1,137.38,28.44Zm4,0c0-1-.47-1.68-1.3-1.68s-1.3.68-1.3,1.68.46,1.67,1.3,1.67S141.36,29.44,141.36,28.44Z"/><path class="cls-1" d="M146.61,31v-.6h0a1.65,1.65,0,0,1-1.47.74,1.67,1.67,0,0,1-1.78-1.85V25.87h1.35v3.19c0,.6.27.93.85.93a1,1,0,0,0,1-1.16v-3h1.36V31Z"/><path class="cls-1" d="M148.8,25.87h1.31v.64h0a1.79,1.79,0,0,1,1.51-.78c1.36,0,2.23,1.11,2.23,2.71s-.9,2.71-2.22,2.71a1.65,1.65,0,0,1-1.48-.73h0v2.26H148.8Zm3.7,2.61c0-1-.34-1.65-1.18-1.65s-1.19.73-1.19,1.65.43,1.54,1.24,1.54S152.5,29.45,152.5,28.48Z"/></svg>