<svg id="Layer_1" data-name="Layer 1" xmlns="http://www.w3.org/2000/svg" viewBox="0 0 350.51 37.03"><defs><style>.cls-1{fill:#fff;}.cls-2{fill:#d76027;}</style></defs><title>COS_Data Science Research Group_RGB_hor_w</title><rect class="cls-1" x="76.42" y="6.03" width="0.38" height="24.97"/><path class="cls-2" d="M39.57,8.7c.43-1.12,1.85-1.12,3-1.12h.21V6s-4.44.1-5.8.1S31.42,6,31.42,6V7.58h.21c1.14,0,2.56,0,3,1.12A21.15,21.15,0,0,1,35,13.55v9.91a21.15,21.15,0,0,1-.36,4.85c-.43,1.13-1.85,1.13-3,1.13h-.21V31S35,30.84,37,30.84c2.26,0,5.79.15,5.79.15V29.44h-.21c-1.14,0-2.56,0-3-1.13a21.74,21.74,0,0,1-.35-4.85V13.55A21.74,21.74,0,0,1,39.57,8.7Z"/><path class="cls-2" d="M46.14,6.05v6.47h1.54v-.2c.14-4.21,1.75-4.39,5.39-4.39h.37c.9,0,1.75,0,2.09.32a.62.62,0,0,1,.16.47v17c0,2.53-.35,3.57-3.91,3.72h-.2V31s4.15-.15,6.55-.15c1.83,0,5.92.15,5.92.15V29.47h-.21c-3.55-.15-3.91-1.19-3.91-3.72v-17a.56.56,0,0,1,.17-.42c.41-.41,1.54-.39,2.44-.38h.51c3.55,0,4.69,1,4.9,4.4v.19H69.5V6.05s-9,.06-11.68.06S46.14,6.05,46.14,6.05Z"/><path class="cls-2" d="M28,29.44a4.43,4.43,0,0,1-3.5-1.85L17.1,19.13c3.88-.51,6.27-3.07,6.27-6.78A5.45,5.45,0,0,0,20.6,7.18,12.2,12.2,0,0,0,14.67,6c-.78,0-2.65.08-4.71.08S3.38,6,3.38,6V7.57h.31c1.18,0,2.5,0,2.85,1.12a22.5,22.5,0,0,1,.32,4.59V23.46a38.67,38.67,0,0,1-.14,4,5.78,5.78,0,0,1-.18.86c-.36,1.12-1.79,1.12-2.95,1.12H3.38V31s3.46-.16,5.77-.16c2,0,5.44.15,5.44.16V29.44h-.31c-1.16,0-2.47,0-2.85-1.12a4.74,4.74,0,0,1-.18-.86,35.71,35.71,0,0,1-.15-3.73V19.57c1.38,0,1.5.16,2.21,1,.13.16.28.34.46.54l6.15,7.63L21.73,31s2-.09,2.95-.09c1.4,0,3.47.09,3.47.09V29.47ZM11.1,17.87V8.81c0-.36,0-.86.29-1a18.09,18.09,0,0,1,2.32,0c3.16,0,5,1.85,5,5.07,0,2.35-.63,3.7-2,4.38S11.1,17.87,11.1,17.87Z"/><path class="cls-1" d="M83.47,9.25a3.05,3.05,0,0,1,3-3.36A2.39,2.39,0,0,1,89.1,7.94h-.79A1.68,1.68,0,0,0,86.5,6.59c-1.41,0-2.2,1.15-2.2,2.66s.87,2.64,2.21,2.64a1.78,1.78,0,0,0,1.87-1.78h.81a2.74,2.74,0,0,1-.78,1.81,2.67,2.67,0,0,1-1.92.68A3,3,0,0,1,83.47,9.25Z"/><path class="cls-1" d="M89.72,10.15a2.26,2.26,0,1,1,4.5,0,2.26,2.26,0,1,1-4.5,0Zm3.75,0c0-1-.5-1.84-1.49-1.84s-1.51.81-1.51,1.84S91,12,92,12,93.47,11.18,93.47,10.15Z"/><path class="cls-1" d="M95,6h.73v6.43H95Z"/><path class="cls-1" d="M96.74,6h.73v6.43h-.73Z"/><path class="cls-1" d="M98.23,10.15a2.27,2.27,0,0,1,2.21-2.45c1.39,0,2.14,1.08,2.14,2.62H99c0,.95.56,1.67,1.5,1.67a1.22,1.22,0,0,0,1.29-1h.71a1.9,1.9,0,0,1-2,1.57A2.25,2.25,0,0,1,98.23,10.15ZM99,9.77h2.8c0-.92-.52-1.49-1.35-1.49S99.1,8.93,99,9.77Z"/><path class="cls-1" d="M103.17,12.73h.68c.07.52.55.72,1.27.72s1.34-.39,1.34-1.2v-.66h0a1.59,1.59,0,0,1-1.38.72,2.08,2.08,0,0,1-2-2.3,2.07,2.07,0,0,1,2-2.3,1.62,1.62,0,0,1,1.42.7h0V7.82h.73v4.4c0,1.23-.81,1.8-2,1.8S103.25,13.54,103.17,12.73ZM106.51,10c0-1-.43-1.65-1.42-1.65s-1.32.69-1.32,1.7.46,1.68,1.33,1.68C106.17,11.7,106.51,11,106.51,10Z"/><path class="cls-1" d="M107.91,10.15a2.28,2.28,0,0,1,2.21-2.45c1.39,0,2.14,1.08,2.14,2.62h-3.6c0,.95.57,1.67,1.5,1.67a1.21,1.21,0,0,0,1.29-1h.71a1.89,1.89,0,0,1-2,1.57A2.25,2.25,0,0,1,107.91,10.15Zm.77-.38h2.8c0-.92-.52-1.49-1.36-1.49S108.79,8.93,108.68,9.77Z"/><path class="cls-1" d="M114.14,10.15a2.25,2.25,0,1,1,4.49,0,2.25,2.25,0,1,1-4.49,0Zm3.75,0c0-1-.51-1.84-1.5-1.84s-1.5.81-1.5,1.84.51,1.84,1.5,1.84S117.89,11.18,117.89,10.15Z"/><path class="cls-1" d="M119,7.82h.64V7.07c0-.8.46-1.09,1.24-1.09l.37,0v.62H121c-.47,0-.64.12-.64.5v.71h.87v.59h-.87v4.06h-.73V8.41H119Z"/><path class="cls-1" d="M123.05,10.29h.79a1.74,1.74,0,0,0,2,1.66c.89,0,1.53-.4,1.53-1.21s-.77-1.08-1.92-1.34-2.11-.57-2.11-1.79c0-1.06.88-1.7,2.19-1.7a2.15,2.15,0,0,1,2.44,2h-.77a1.48,1.48,0,0,0-1.65-1.38c-.88,0-1.45.37-1.45,1s.72.94,1.68,1.13c1.25.25,2.39.56,2.39,2,0,1.2-1,1.88-2.36,1.88C124,12.6,123.12,11.59,123.05,10.29Z"/><path class="cls-1" d="M128.72,10.15A2.27,2.27,0,0,1,131,7.7a1.87,1.87,0,0,1,2,1.62h-.74a1.16,1.16,0,0,0-1.25-1c-1,0-1.5.81-1.5,1.84S130,12,131,12a1.16,1.16,0,0,0,1.27-1.16H133a1.82,1.82,0,0,1-2,1.77A2.27,2.27,0,0,1,128.72,10.15Z"/><path class="cls-1" d="M133.65,6h.73v.9h-.73Zm0,1.78h.73v4.65h-.73Z"/><path class="cls-1" d="M135.11,10.15a2.27,2.27,0,0,1,2.21-2.45c1.39,0,2.14,1.08,2.14,2.62h-3.6c0,.95.56,1.67,1.5,1.67a1.21,1.21,0,0,0,1.29-1h.71a1.9,1.9,0,0,1-2,1.57A2.25,2.25,0,0,1,135.11,10.15Zm.77-.38h2.8c-.05-.92-.53-1.49-1.36-1.49S136,8.93,135.88,9.77Z"/><path class="cls-1" d="M140.9,8.43h0a1.74,1.74,0,0,1,1.47-.72A1.4,1.4,0,0,1,144,9.21v3.26h-.73V9.27a.92.92,0,0,0-1-.95,1.24,1.24,0,0,0-1.28,1.29v2.86h-.73V7.82h.73Z"/><path class="cls-1" d="M144.66,10.15a2.27,2.27,0,0,1,2.25-2.45,1.87,1.87,0,0,1,2,1.62h-.74a1.16,1.16,0,0,0-1.25-1c-1,0-1.5.81-1.5,1.84s.51,1.84,1.5,1.84a1.16,1.16,0,0,0,1.27-1.16h.72a1.82,1.82,0,0,1-2,1.77A2.27,2.27,0,0,1,144.66,10.15Z"/><path class="cls-1" d="M149.33,10.15a2.27,2.27,0,0,1,2.21-2.45c1.39,0,2.14,1.08,2.14,2.62h-3.6c0,.95.57,1.67,1.5,1.67a1.21,1.21,0,0,0,1.29-1h.71a1.9,1.9,0,0,1-2,1.57A2.25,2.25,0,0,1,149.33,10.15Zm.77-.38h2.8c-.05-.92-.53-1.49-1.36-1.49S150.2,8.93,150.1,9.77Z"/><path class="cls-1" d="M83.71,16.7h5.58c3.82,0,6.28,3.08,6.28,7.3a7.17,7.17,0,0,1-2.28,5.62A6.39,6.39,0,0,1,89.05,31H83.71Zm5.14,11.8c2.72,0,3.78-1.66,3.78-4.5s-1.24-4.82-3.7-4.82H86.61V28.5Z"/><path class="cls-1" d="M103,29.86h0a3.15,3.15,0,0,1-3,1.38c-2.1,0-3.58-1.1-3.58-3.14,0-2.26,1.84-3,4.12-3.3,1.7-.24,2.48-.38,2.48-1.16s-.58-1.22-1.72-1.22-1.9.46-2,1.44H96.81c.08-1.8,1.42-3.38,4.42-3.38s4.32,1.38,4.32,3.78v5.22c0,.78.12,1.24.36,1.42V31h-2.62A2.78,2.78,0,0,1,103,29.86Zm0-2.48V25.84a7.58,7.58,0,0,1-1.9.6c-1.42.32-2.12.64-2.12,1.6s.64,1.3,1.6,1.3C102.13,29.34,103,28.38,103,27.38Z"/><path class="cls-1" d="M106.47,20.74h1.42v-3.2h2.66v3.2h1.76v1.8h-1.76V28a.9.9,0,0,0,1,1l.8,0v2s-.62,0-1.7,0c-1.32,0-2.78-.52-2.78-2.46v-6h-1.42Z"/><path class="cls-1" d="M120,29.86h0a3.15,3.15,0,0,1-3,1.38c-2.1,0-3.58-1.1-3.58-3.14,0-2.26,1.84-3,4.12-3.3,1.7-.24,2.48-.38,2.48-1.16s-.58-1.22-1.72-1.22-1.9.46-2,1.44h-2.42c.08-1.8,1.42-3.38,4.42-3.38s4.32,1.38,4.32,3.78v5.22c0,.78.12,1.24.36,1.42V31h-2.62A2.78,2.78,0,0,1,120,29.86Zm0-2.48V25.84a7.58,7.58,0,0,1-1.9.6c-1.42.32-2.12.64-2.12,1.6s.64,1.3,1.6,1.3C119.11,29.34,120,28.38,120,27.38Z"/><path class="cls-1" d="M127.19,26.58H130c.2,1.72,1.18,2.4,3.22,2.4,1.48,0,2.78-.52,2.78-1.84s-1.36-1.68-3.54-2.18c-2.56-.58-4.9-1.26-4.9-4.24,0-2.82,2.3-4.28,5.48-4.28s5.3,1.58,5.52,4.46h-2.78a2.47,2.47,0,0,0-2.76-2.16c-1.56,0-2.58.66-2.58,1.68s1,1.5,3.12,2c2.94.64,5.34,1.34,5.34,4.42,0,2.9-2.34,4.52-5.56,4.52C129.49,31.32,127.29,29.6,127.19,26.58Z"/><path class="cls-1" d="M140,25.88c0-3.06,2-5.42,5.12-5.42a4.36,4.36,0,0,1,4.66,3.76h-2.66a1.88,1.88,0,0,0-1.88-1.58c-1.64,0-2.48,1.26-2.48,3.24s.78,3.24,2.44,3.24a1.92,1.92,0,0,0,2.06-1.74h2.62a4.3,4.3,0,0,1-4.62,3.92A5.1,5.1,0,0,1,140,25.88Z"/><path class="cls-1" d="M151,16.7h2.72v2.44H151Zm0,4h2.72V31H151Z"/><path class="cls-1" d="M155,25.86a5.08,5.08,0,0,1,5.06-5.4c3.3,0,5.06,2.52,5.06,6.18h-7.44a2.55,2.55,0,0,0,2.62,2.56,1.92,1.92,0,0,0,2-1.26H165a4.4,4.4,0,0,1-4.64,3.36A5.08,5.08,0,0,1,155,25.86Zm2.72-1.1h4.56a2.16,2.16,0,0,0-2.18-2.2A2.28,2.28,0,0,0,157.71,24.76Z"/><path class="cls-1" d="M169,22.14h.06a3.33,3.33,0,0,1,3-1.68,3.53,3.53,0,0,1,3.54,3.84V31H173V24.7a1.71,1.71,0,0,0-1.78-1.88,2.14,2.14,0,0,0-2.08,2.36V31h-2.72V20.74H169Z"/><path class="cls-1" d="M176.85,25.88c0-3.06,2-5.42,5.12-5.42a4.36,4.36,0,0,1,4.66,3.76H184a1.88,1.88,0,0,0-1.88-1.58c-1.64,0-2.48,1.26-2.48,3.24s.78,3.24,2.44,3.24a1.92,1.92,0,0,0,2.06-1.74h2.62a4.3,4.3,0,0,1-4.62,3.92A5.1,5.1,0,0,1,176.85,25.88Z"/><path class="cls-1" d="M187.41,25.86a5.08,5.08,0,0,1,5.06-5.4c3.3,0,5.06,2.52,5.06,6.18h-7.44a2.55,2.55,0,0,0,2.62,2.56,1.92,1.92,0,0,0,2-1.26h2.68a4.4,4.4,0,0,1-4.64,3.36A5.08,5.08,0,0,1,187.41,25.86Zm2.72-1.1h4.56a2.16,2.16,0,0,0-2.18-2.2A2.28,2.28,0,0,0,190.13,24.76Z"/><path class="cls-1" d="M207.73,25.48h-2.36V31h-3V16.7h6.28A5,5,0,0,1,212.39,18a4.27,4.27,0,0,1,1.28,3.1,4,4,0,0,1-2.84,4L214.41,31h-3.36Zm-2.36-2.36h3c1.52,0,2.32-.7,2.32-2s-.84-1.94-2.28-1.94h-3Z"/><path class="cls-1" d="M214.35,25.86a5.08,5.08,0,0,1,5.06-5.4c3.3,0,5.06,2.52,5.06,6.18H217a2.55,2.55,0,0,0,2.62,2.56,1.92,1.92,0,0,0,2-1.26h2.68a4.4,4.4,0,0,1-4.64,3.36A5.08,5.08,0,0,1,214.35,25.86Zm2.72-1.1h4.56a2.16,2.16,0,0,0-2.18-2.2A2.28,2.28,0,0,0,217.07,24.76Z"/><path class="cls-1" d="M225.08,27.68h2.53a2,2,0,0,0,2.24,1.7c1.2,0,1.88-.46,1.88-1.18,0-1-1.3-1.08-2.7-1.36-1.84-.36-3.65-.86-3.65-3.1s1.85-3.28,4.19-3.28c2.7,0,4.2,1.34,4.4,3.4h-2.46c-.12-1.1-.82-1.5-2-1.5s-1.76.4-1.76,1.14,1.36,1,2.82,1.26c1.72.36,3.62.84,3.62,3.24,0,2.06-1.76,3.3-4.32,3.3C226.91,31.3,225.25,29.86,225.08,27.68Z"/><path class="cls-1" d="M235,25.86a5.08,5.08,0,0,1,5.07-5.4c3.3,0,5.06,2.52,5.06,6.18h-7.44a2.55,2.55,0,0,0,2.62,2.56,1.92,1.92,0,0,0,2-1.26H245a4.4,4.4,0,0,1-4.64,3.36A5.09,5.09,0,0,1,235,25.86Zm2.73-1.1h4.56a2.16,2.16,0,0,0-2.18-2.2A2.28,2.28,0,0,0,237.75,24.76Z"/><path class="cls-1" d="M252.55,29.86h0a3.15,3.15,0,0,1-3,1.38c-2.11,0-3.59-1.1-3.59-3.14,0-2.26,1.85-3,4.13-3.3,1.7-.24,2.48-.38,2.48-1.16s-.58-1.22-1.72-1.22-1.91.46-2,1.44h-2.42c.08-1.8,1.42-3.38,4.43-3.38s4.32,1.38,4.32,3.78v5.22c0,.78.12,1.24.36,1.42V31h-2.62A2.78,2.78,0,0,1,252.55,29.86Zm0-2.48V25.84a7.58,7.58,0,0,1-1.9.6c-1.42.32-2.13.64-2.13,1.6s.65,1.3,1.61,1.3C251.71,29.34,252.57,28.38,252.57,27.38Z"/><path class="cls-1" d="M259.46,22.38h.06A2.69,2.69,0,0,1,262,20.62a1.8,1.8,0,0,1,.65.08v2.38h-.07c-1.78-.18-3.06.76-3.06,2.92v5h-2.72V20.74h2.62Z"/><path class="cls-1" d="M263.06,25.88c0-3.06,2-5.42,5.13-5.42a4.36,4.36,0,0,1,4.66,3.76h-2.66a1.88,1.88,0,0,0-1.88-1.58c-1.64,0-2.48,1.26-2.48,3.24s.78,3.24,2.44,3.24a1.92,1.92,0,0,0,2.06-1.74H273a4.3,4.3,0,0,1-4.62,3.92A5.1,5.1,0,0,1,263.06,25.88Z"/><path class="cls-1" d="M276.84,22.08h.07a3.27,3.27,0,0,1,3-1.62,3.53,3.53,0,0,1,3.54,3.84V31h-2.72V24.7a1.71,1.71,0,0,0-1.78-1.88,2.15,2.15,0,0,0-2.09,2.36V31h-2.72V16.7h2.72Z"/><path class="cls-1" d="M299.07,29.08h0a4.27,4.27,0,0,1-4,2.22,6.54,6.54,0,0,1-5-2.08,7.85,7.85,0,0,1-1.86-5.32,7.8,7.8,0,0,1,2.34-5.84,6.58,6.58,0,0,1,4.61-1.64c3.6,0,5.66,2,6.12,4.78h-2.84a3,3,0,0,0-3.22-2.38c-2.71,0-4.05,2.24-4.05,5.08s1.54,5.06,4,5.06a3.5,3.5,0,0,0,3.68-3.24v-.08h-3.44V23.4h6V31h-2.18Z"/><path class="cls-1" d="M305.76,22.38h.06a2.69,2.69,0,0,1,2.52-1.76,1.8,1.8,0,0,1,.65.08v2.38h-.07c-1.78-.18-3.06.76-3.06,2.92v5h-2.72V20.74h2.62Z"/><path class="cls-1" d="M309.36,25.88a5.37,5.37,0,1,1,10.73,0,5.37,5.37,0,1,1-10.73,0Zm8,0c0-2-.94-3.36-2.6-3.36s-2.61,1.36-2.61,3.36.92,3.34,2.61,3.34S317.33,27.88,317.33,25.88Z"/><path class="cls-1" d="M327.83,31V29.8h-.06a3.3,3.3,0,0,1-2.94,1.48,3.35,3.35,0,0,1-3.57-3.7V20.74H324v6.38c0,1.2.54,1.86,1.71,1.86a2.07,2.07,0,0,0,2.06-2.32V20.74h2.72V31Z"/><path class="cls-1" d="M332.2,20.74h2.63V22h.05a3.59,3.59,0,0,1,3-1.56c2.72,0,4.46,2.22,4.46,5.42s-1.8,5.42-4.44,5.42a3.32,3.32,0,0,1-3-1.46h0v4.52H332.2ZM339.61,26c0-1.94-.68-3.3-2.36-3.3s-2.38,1.46-2.38,3.3.86,3.08,2.48,3.08C338.73,29,339.61,27.9,339.61,26Z"/></svg>